<?xml version="1.0" standalone="no"?>
<!DOCTYPE svg PUBLIC "-//W3C//DTD SVG 20010904//EN"
 "http://www.w3.org/TR/2001/REC-SVG-20010904/DTD/svg10.dtd">
<svg version="1.0" xmlns="http://www.w3.org/2000/svg"
 width="260.000000pt" height="260.000000pt" viewBox="0 0 260.000000 260.000000"
 preserveAspectRatio="xMidYMid meet">
<metadata>
Created by potrace 1.11, written by Peter Selinger 2001-2013
</metadata>
<g transform="translate(0.000000,260.000000) scale(0.100000,-0.100000)"
fill="#000000" stroke="none">
<path d="M697 2589 c-177 -27 -324 -107 -463 -251 -180 -186 -255 -405 -220
-648 15 -102 82 -274 138 -352 19 -28 19 -28 -2 -58 -38 -54 -100 -197 -121
-282 -41 -159 -21 -374 46 -515 44 -93 85 -150 167 -230 106 -105 204 -169
323 -211 204 -72 472 -34 684 97 l47 28 64 -38 c158 -96 376 -142 549 -115
295 44 520 235 633 537 29 78 31 94 32 214 0 72 -3 148 -7 170 -17 93 -73 232
-118 296 -18 26 -18 27 9 70 133 209 164 418 108 704 -9 43 -60 158 -96 213
-46 71 -152 178 -235 237 -230 164 -517 184 -793 55 -45 -21 -95 -48 -111 -59
-24 -17 -31 -18 -47 -7 -81 57 -253 126 -354 142 -66 10 -178 11 -233 3z m483
-1075 c88 -15 254 -7 324 16 41 14 47 5 30 -42 -8 -23 -17 -55 -21 -72 -9 -42
-10 -262 -1 -308 5 -21 5 -38 0 -38 -4 0 -43 6 -87 13 -109 18 -266 11 -332
-14 -27 -10 -28 -6 -8 76 18 76 17 271 -1 332 -19 62 -19 62 24 52 20 -5 53
-12 72 -15z"/>
</g>
</svg>
