<?xml version="1.0" encoding="UTF-8"?>
<svg width="800px" height="800px" viewBox="0 0 800 800" version="1.1" xmlns="http://www.w3.org/2000/svg" xmlns:xlink="http://www.w3.org/1999/xlink">
    <!-- Generator: Sketch 52.2 (67145) - http://www.bohemiancoding.com/sketch -->
    <title>lakeba logo bg</title>
    <desc>Created with Sketch.</desc>
    <g id="UI" stroke="none" stroke-width="1" fill="none" fill-rule="evenodd">
        <g id="0---HomePage-Copy" transform="translate(-590.000000, -460.000000)">
            <rect fill="#F8F8F8" x="0" y="0" width="1440" height="4780"></rect>
            <g id="Section/Header" fill="#F1F1F1">
                <g id="lakeba-logo-bg" transform="translate(690.000000, 560.000000)">
                    <path d="M526.585538,55.6750906 C528.265362,58.9358527 526.858052,59.1134189 524.108509,61.9262298 C519.585594,66.5469879 518.572819,67.5841362 518.572819,67.5841362 C514.155654,72.0959332 506.919803,79.4730038 502.490437,83.9807651 C502.490437,83.9807651 454.243291,133.045549 426.093022,161.435971 C409.827608,177.836635 393.310017,194.047627 374.242186,207.126995 C354.279533,220.819775 329.570259,225.888484 305.296193,227.099163 L303.66111,227.18391 C301.859265,227.224266 300.386877,227.264622 300.386877,227.268658 C300.386877,227.272693 300.272991,227.272693 300.232317,227.272693 C300.191643,227.272693 300.049285,227.272693 300.004544,227.272693 C299.963871,227.272693 299.931332,227.272693 299.931332,227.268658 C299.931332,227.264622 298.458944,227.224266 296.657099,227.18391 L295.017948,227.099163 C270.74795,225.888484 246.034609,220.819775 226.071956,207.126995 C207.004124,194.047627 190.486534,177.836635 174.225187,161.435971 C146.074918,133.045549 97.8237049,83.9807651 97.8237049,83.9807651 C93.3984061,79.4730038 86.1584871,72.0959332 81.7453904,67.5841362 C81.7453904,67.5841362 80.7285478,66.5469879 76.2096995,61.9262298 C73.4560899,59.1134189 72.0528471,58.9358527 73.7286037,55.6750906 C74.6925704,53.7985382 76.8930177,51.9905909 78.3206647,50.4368862 C107.560989,18.5395308 149.642002,0 193.109987,0 C234.654107,0 290.519437,36.3809033 290.519437,36.3809033 C295.81922,39.8313384 304.494921,39.8313384 309.798772,36.3809033 C309.798772,36.3809033 365.660035,0 407.208222,0 C450.676207,0 492.753152,18.5395308 521.997544,50.4368862 C523.421124,51.9905909 525.621571,53.7985382 526.585538,55.6750906 Z M55.6457731,73.451352 C58.9048181,71.7747064 59.0822908,73.1786937 61.8936205,75.9296948 C66.5119453,80.4550102 67.5485475,81.4723922 67.5485475,81.4723922 C72.0579687,85.8878304 79.4311546,93.1275212 83.9365423,97.5592374 C83.9365423,97.5592374 132.975489,145.836051 161.350961,174.001256 C177.742989,190.27123 193.945445,206.797584 207.017926,225.875533 C220.703495,245.848778 225.773568,270.571162 226.98361,294.862176 L227.064279,296.494057 C227.104614,298.296858 227.144949,299.774097 227.148982,299.774097 C227.153016,299.774097 227.153016,299.883974 227.153016,299.924669 C227.153016,299.969434 227.153016,300.111867 227.153016,300.152563 C227.153016,300.193258 227.153016,300.225814 227.148982,300.225814 C227.144949,300.225814 227.104614,301.698983 227.064279,303.505854 L226.979576,305.141804 C225.769535,329.428749 220.703495,354.151133 207.017926,374.124378 C193.945445,393.202326 177.742989,409.728681 161.350961,425.998655 C132.975489,454.16386 83.9365423,502.440673 83.9365423,502.440673 C79.4311546,506.86832 72.0579687,514.11208 67.5485475,518.531588 C67.5485475,518.531588 66.5119453,519.544901 61.8936205,524.070216 C59.0822908,526.821217 58.9048181,528.225204 55.6457731,526.548559 C53.7702088,525.58408 51.9632136,523.382466 50.410327,521.954061 C18.5297682,492.698223 0,450.594883 0,407.107904 C0,365.537673 36.3617457,309.646772 36.3617457,309.646772 C39.8103639,304.340107 39.8103639,295.659803 36.3617457,290.357208 C36.3617457,290.357208 0,234.462238 0,192.896076 C0,149.405027 18.5297682,107.301688 50.410327,78.0458494 C51.9632136,76.617445 53.7702088,74.4158302 55.6457731,73.451352 Z M73.4126743,544.324888 C71.7369105,541.060089 73.1401593,540.886558 75.8897135,538.073746 C80.4126488,533.457022 81.4294957,532.419873 81.4294957,532.419873 C85.8426116,527.904039 93.0784946,520.526965 97.50788,516.019202 C97.50788,516.019202 145.759302,466.954399 173.909694,438.563966 C190.17111,422.163295 206.688772,405.956333 225.756687,392.876959 C245.719426,379.180139 270.428808,374.107392 294.702978,372.896712 L296.342136,372.820036 C298.139921,372.775644 299.616383,372.735288 299.616383,372.731253 C299.616383,372.727217 299.726202,372.727217 299.766876,372.727217 C299.80755,372.727217 299.953976,372.727217 299.99465,372.727217 C300.035324,372.727217 300.07193,372.727217 300.07193,372.731253 C300.07193,372.735288 301.544325,372.775644 303.346178,372.820036 L304.981268,372.896712 C329.255438,374.107392 353.96482,379.180139 373.927559,392.876959 C392.995473,405.956333 409.513136,422.163295 425.77862,438.563966 C453.929011,466.954399 502.176366,516.019202 502.176366,516.019202 C506.601684,520.526965 513.841634,527.904039 518.258818,532.419873 C518.258818,532.419873 519.271597,533.457022 523.790465,538.073746 C526.544087,540.886558 527.947335,541.060089 526.271572,544.324888 C525.307601,546.201441 523.107144,548.009389 521.679491,549.563094 C492.439039,581.460462 450.361912,600 406.893738,600 C365.345371,600 309.483866,563.619082 309.483866,563.619082 C304.179992,560.168646 295.504254,560.168646 290.204447,563.619082 C290.204447,563.619082 234.338875,600 192.794575,600 C149.326401,600 107.245207,581.460462 78.0047552,549.563094 C76.577102,548.009389 74.3766452,546.201441 73.4126743,544.324888 Z M544.357711,526.865519 C541.094601,528.542168 540.92116,527.134109 538.109802,524.387172 C533.491432,519.85778 532.45482,518.844466 532.45482,518.844466 C527.945354,514.424951 520.568062,507.185248 516.066663,502.753524 C516.066663,502.753524 467.027233,454.4807 438.647447,426.315448 C422.255257,410.045447 406.056676,393.514995 392.984066,374.441085 C379.294328,354.467807 374.228238,329.745382 373.018185,305.458397 L372.937514,303.818374 C372.893146,302.01557 372.852811,300.542398 372.848777,300.08661 C372.852811,300.08661 372.893146,298.613439 372.937514,296.810635 L373.018185,295.174681 C374.228238,270.887696 379.294328,246.165271 392.984066,226.191993 C406.056676,207.114013 422.255257,190.587631 438.647447,174.313561 C467.027233,146.148309 516.066663,97.8754842 516.066663,97.8754842 C520.568062,93.4437606 527.945354,86.2040578 532.45482,81.7845427 C532.45482,81.7845427 533.491432,80.7712285 538.109802,76.2459056 C540.92116,73.4948999 541.094601,72.0909103 544.357711,73.7675587 C546.229261,74.7320385 548.036274,76.933657 549.593209,78.3620638 C581.474083,107.617951 600,149.717291 600,193.208412 C600,234.778712 563.641929,290.673776 563.641929,290.673776 C560.189243,295.97638 560.189243,304.652629 563.641929,309.959302 C563.641929,309.959302 600,365.854366 600,407.420597 C600,450.911717 581.474083,493.015127 549.593209,522.271014 C548.036274,523.699421 546.229261,525.901039 544.357711,526.865519 Z" id="Combined-Shape" style="mix-blend-mode: multiply;"></path>
                </g>
            </g>
        </g>
    </g>
</svg>